# xmcd
#
# Track frame offsets:
#	150
#	1036
#	14235
#	31034
#	40634
#	53724
#	68006
#	84626
#	102372
#	112996
#	123597
#	132985
#	145747
#	156352
#	173819
#	184271
#	197042
#	213172
#	226868
#	239458
#	252124
#
# Disc length: 3671 seconds
#
# Revision: 1
# Processed by: cddbd v1.5.2PL0 Copyright (c) Steve Scherf et al.
# Submitted via: audiograbber 1.83.01
#
DISCID=150e5515
DTITLE=Deutsche Evergreens - Vol.2
DYEAR=2014
DGENRE=Schlager
TTITLE0=Intro
TTITLE1=Jetzt geht die Party richtig los
TTITLE2=2 Kleine Italiener
TTITLE3=Ein Student aus Upsala
TTITLE4=Beautyful Sunday
TTITLE5=Lotusblume
TTITLE6=Ich werde gehn, heute Nacht
TTITLE7=Die schwarze Barbara
TTITLE8=Oh, wann kommst Du ?
TTITLE9=Cafe Oriental
TTITLE10=Zucker im Kaffee
TTITLE11=Pigallee
TTITLE12=Ich hab die ganze Nacht nur an Dich gedacht
TTITLE13=Loreley
TTITLE14=Anuschka
TTITLE15=Komm gib mir Deine Hand
TTITLE16=Er hat ein knallrotes Gummiboot
TTITLE17=Himbeereis zum Frühstück
TTITLE18=Die Maschen der Mädchen
TTITLE19=Der große Zampano
TTITLE20=Tränen lügen nicht
EXTD=
EXTT0=
EXTT1=
EXTT2=
EXTT3=
EXTT4=
EXTT5=
EXTT6=
EXTT7=
EXTT8=
EXTT9=
EXTT10=
EXTT11=
EXTT12=
EXTT13=
EXTT14=
EXTT15=
EXTT16=
EXTT17=
EXTT18=
EXTT19=
EXTT20=
PLAYORDER=
